<svg height="702" width="720" xmlns="http://www.w3.org/2000/svg">
<rect height="702" fill="#555" width="720"></rect>
<text fill="#7f7" font-family="Courier New" font-size="12" xml:space="preserve">
<tspan x="10" y="26">29 megabytes installed</tspan>
<tspan x="10" y="42"></tspan>
<tspan x="10" y="58">node_modules</tspan>
<tspan x="10" y="74">└─┬ node-lambda@0.9.0 </tspan>
<tspan x="10" y="90">  ├── async@0.9.2 </tspan>
<tspan x="10" y="106">  ├─┬ aws-sdk@2.41.0 </tspan>
<tspan x="10" y="122">  │ ├─┬ buffer@4.9.1 </tspan>
<tspan x="10" y="138">  │ │ ├── base64-js@1.2.0 </tspan>
<tspan x="10" y="154">  │ │ ├── ieee754@1.1.8 </tspan>
<tspan x="10" y="170">  │ │ └── isarray@1.0.0 </tspan>
<tspan x="10" y="186">  │ ├── crypto-browserify@1.0.9 </tspan>
<tspan x="10" y="202">  │ ├── jmespath@0.15.0 </tspan>
<tspan x="10" y="218">  │ ├── querystring@0.2.0 </tspan>
<tspan x="10" y="234">  │ ├── sax@1.2.1 </tspan>
<tspan x="10" y="250">  │ ├─┬ url@0.10.3 </tspan>
<tspan x="10" y="266">  │ │ └── punycode@1.3.2 </tspan>
<tspan x="10" y="282">  │ ├── uuid@3.0.1 </tspan>
<tspan x="10" y="298">  │ ├── xml2js@0.4.17 </tspan>
<tspan x="10" y="314">  │ └─┬ xmlbuilder@4.2.1 </tspan>
<tspan x="10" y="330">  │   └── lodash@4.17.4 </tspan>
<tspan x="10" y="346">  ├─┬ commander@2.9.0 </tspan>
<tspan x="10" y="362">  │ └── graceful-readlink@1.0.1 </tspan>
<tspan x="10" y="378">  ├── dotenv@0.4.0 </tspan>
<tspan x="10" y="394">  ├─┬ fs-extra@0.30.0 </tspan>
<tspan x="10" y="410">  │ ├── graceful-fs@4.1.11 </tspan>
<tspan x="10" y="426">  │ ├── jsonfile@2.4.0 </tspan>
<tspan x="10" y="442">  │ ├── klaw@1.3.1 </tspan>
<tspan x="10" y="458">  │ └── path-is-absolute@1.0.1 </tspan>
<tspan x="10" y="474">  ├─┬ node-zip@1.1.1 </tspan>
<tspan x="10" y="490">  │ └─┬ jszip@2.5.0 </tspan>
<tspan x="10" y="506">  │   └── pako@0.2.9 </tspan>
<tspan x="10" y="522">  └─┬ rimraf@2.6.1 </tspan>
<tspan x="10" y="538">    └─┬ glob@7.1.1 </tspan>
<tspan x="10" y="554">      ├── fs.realpath@1.0.0 </tspan>
<tspan x="10" y="570">      ├─┬ inflight@1.0.6 </tspan>
<tspan x="10" y="586">      │ └── wrappy@1.0.2 </tspan>
<tspan x="10" y="602">      ├── inherits@2.0.3 </tspan>
<tspan x="10" y="618">      ├─┬ minimatch@3.0.3 </tspan>
<tspan x="10" y="634">      │ └─┬ brace-expansion@1.1.7 </tspan>
<tspan x="10" y="650">      │   ├── balanced-match@0.4.2 </tspan>
<tspan x="10" y="666">      │   └── concat-map@0.0.1 </tspan>
<tspan x="10" y="682">      └── once@1.4.0</tspan>
</text>
</svg>
